<mxfile host="app.diagrams.net" modified="2022-08-27T18:38:05.195Z" agent="5.0 (Windows NT 10.0; Win64; x64) AppleWebKit/537.36 (KHTML, like Gecko) Chrome/104.0.0.0 Safari/537.36" etag="FqIFT9Q8hSE4OYtfM1Kf" version="20.2.7" type="github">
  <diagram name="Page-1" id="e7e014a7-5840-1c2e-5031-d8a46d1fe8dd">
    <mxGraphModel dx="996" dy="608" grid="1" gridSize="10" guides="1" tooltips="1" connect="1" arrows="1" fold="1" page="1" pageScale="1" pageWidth="1169" pageHeight="826" background="none" math="0" shadow="0">
      <root>
        <mxCell id="0" />
        <mxCell id="1" parent="0" />
        <mxCell id="2" value="Source" style="swimlane;whiteSpace=wrap" parent="1" vertex="1">
          <mxGeometry x="164.5" y="128" width="280" height="570" as="geometry" />
        </mxCell>
        <mxCell id="npsQW_U2eo6fxlSEJvAF-49" value="Nomination: Classic/JnJ" style="rounded=1;whiteSpace=wrap;html=1;fontFamily=Verdana;" vertex="1" parent="2">
          <mxGeometry x="20" y="255" width="220" height="95" as="geometry" />
        </mxCell>
        <mxCell id="npsQW_U2eo6fxlSEJvAF-62" value="Baza ASH (xlsx)" style="shape=cylinder3;whiteSpace=wrap;html=1;boundedLbl=1;backgroundOutline=1;size=15;fontFamily=Verdana;" vertex="1" parent="2">
          <mxGeometry x="30" y="402" width="200" height="128" as="geometry" />
        </mxCell>
        <mxCell id="npsQW_U2eo6fxlSEJvAF-70" value="" style="shape=singleArrow;direction=south;whiteSpace=wrap;html=1;fontFamily=Verdana;" vertex="1" parent="2">
          <mxGeometry x="100" y="180" width="60" height="70" as="geometry" />
        </mxCell>
        <mxCell id="npsQW_U2eo6fxlSEJvAF-71" value="" style="shape=singleArrow;direction=south;whiteSpace=wrap;html=1;fontFamily=Verdana;" vertex="1" parent="2">
          <mxGeometry x="100" y="350" width="60" height="60" as="geometry" />
        </mxCell>
        <mxCell id="npsQW_U2eo6fxlSEJvAF-73" value="" style="shape=actor;whiteSpace=wrap;html=1;fontFamily=Verdana;" vertex="1" parent="2">
          <mxGeometry x="30.5" y="126" width="40" height="60" as="geometry" />
        </mxCell>
        <mxCell id="npsQW_U2eo6fxlSEJvAF-74" value="" style="shape=actor;whiteSpace=wrap;html=1;fontFamily=Verdana;" vertex="1" parent="2">
          <mxGeometry x="70.5" y="126" width="40" height="60" as="geometry" />
        </mxCell>
        <mxCell id="npsQW_U2eo6fxlSEJvAF-75" value="" style="shape=actor;whiteSpace=wrap;html=1;fontFamily=Verdana;" vertex="1" parent="2">
          <mxGeometry x="110" y="126" width="40" height="60" as="geometry" />
        </mxCell>
        <mxCell id="npsQW_U2eo6fxlSEJvAF-76" value="" style="shape=actor;whiteSpace=wrap;html=1;fontFamily=Verdana;" vertex="1" parent="2">
          <mxGeometry x="150" y="126" width="40" height="60" as="geometry" />
        </mxCell>
        <mxCell id="npsQW_U2eo6fxlSEJvAF-77" value="" style="shape=actor;whiteSpace=wrap;html=1;fontFamily=Verdana;" vertex="1" parent="2">
          <mxGeometry x="190" y="126" width="40" height="60" as="geometry" />
        </mxCell>
        <mxCell id="npsQW_U2eo6fxlSEJvAF-78" value="Dancer" style="text;html=1;align=center;verticalAlign=middle;resizable=0;points=[];autosize=1;strokeColor=none;fillColor=none;fontFamily=Verdana;" vertex="1" parent="2">
          <mxGeometry x="105" y="92" width="70" height="30" as="geometry" />
        </mxCell>
        <mxCell id="npsQW_U2eo6fxlSEJvAF-80" value="DanceEvent" style="text;html=1;align=center;verticalAlign=middle;resizable=0;points=[];autosize=1;strokeColor=none;fillColor=none;fontFamily=Verdana;" vertex="1" parent="2">
          <mxGeometry x="20" y="197" width="100" height="30" as="geometry" />
        </mxCell>
        <mxCell id="3" value="Storage" style="swimlane;whiteSpace=wrap" parent="1" vertex="1">
          <mxGeometry x="444.5" y="128" width="280" height="570" as="geometry" />
        </mxCell>
        <mxCell id="npsQW_U2eo6fxlSEJvAF-65" value="Phyton" style="shape=hexagon;perimeter=hexagonPerimeter2;whiteSpace=wrap;html=1;fixedSize=1;fontFamily=Verdana;" vertex="1" parent="3">
          <mxGeometry x="30" y="102" width="210" height="108" as="geometry" />
        </mxCell>
        <mxCell id="npsQW_U2eo6fxlSEJvAF-67" value="RBD" style="shape=cylinder3;whiteSpace=wrap;html=1;boundedLbl=1;backgroundOutline=1;size=15;fontFamily=Verdana;" vertex="1" parent="3">
          <mxGeometry x="20" y="312" width="240" height="148" as="geometry" />
        </mxCell>
        <mxCell id="4" value="BI" style="swimlane;whiteSpace=wrap" parent="1" vertex="1">
          <mxGeometry x="724.5" y="128" width="280" height="570" as="geometry" />
        </mxCell>
        <mxCell id="npsQW_U2eo6fxlSEJvAF-68" value="" style="shape=flexArrow;endArrow=classic;html=1;rounded=0;fontFamily=Verdana;exitX=1;exitY=0.5;exitDx=0;exitDy=0;exitPerimeter=0;" edge="1" parent="4" source="npsQW_U2eo6fxlSEJvAF-67">
          <mxGeometry width="50" height="50" relative="1" as="geometry">
            <mxPoint x="105.5" y="332" as="sourcePoint" />
            <mxPoint x="85.5" y="262" as="targetPoint" />
          </mxGeometry>
        </mxCell>
        <mxCell id="npsQW_U2eo6fxlSEJvAF-69" value="Tableau" style="icon;html=1;image=img/clipart/Gear_128x128.png;fontFamily=Verdana;" vertex="1" parent="4">
          <mxGeometry x="80" y="140" width="130" height="130" as="geometry" />
        </mxCell>
        <mxCell id="npsQW_U2eo6fxlSEJvAF-63" value="" style="shape=flexArrow;endArrow=classic;html=1;rounded=0;fontFamily=Verdana;exitX=1;exitY=0.5;exitDx=0;exitDy=0;exitPerimeter=0;entryX=0;entryY=0.75;entryDx=0;entryDy=0;" edge="1" parent="1">
          <mxGeometry width="50" height="50" relative="1" as="geometry">
            <mxPoint x="395.5" y="594" as="sourcePoint" />
            <mxPoint x="484.63043478260875" y="308.6521739130435" as="targetPoint" />
          </mxGeometry>
        </mxCell>
        <mxCell id="npsQW_U2eo6fxlSEJvAF-81" value="Transform" style="edgeLabel;html=1;align=center;verticalAlign=middle;resizable=0;points=[];fontFamily=Verdana;" vertex="1" connectable="0" parent="npsQW_U2eo6fxlSEJvAF-63">
          <mxGeometry x="-0.2245" relative="1" as="geometry">
            <mxPoint as="offset" />
          </mxGeometry>
        </mxCell>
        <mxCell id="npsQW_U2eo6fxlSEJvAF-66" value="" style="shape=flexArrow;endArrow=classic;html=1;rounded=0;fontFamily=Verdana;" edge="1" parent="1">
          <mxGeometry width="50" height="50" relative="1" as="geometry">
            <mxPoint x="580" y="340" as="sourcePoint" />
            <mxPoint x="580" y="440" as="targetPoint" />
          </mxGeometry>
        </mxCell>
        <mxCell id="npsQW_U2eo6fxlSEJvAF-79" value="Result" style="text;html=1;align=center;verticalAlign=middle;resizable=0;points=[];autosize=1;strokeColor=none;fillColor=none;fontFamily=Verdana;" vertex="1" parent="1">
          <mxGeometry x="230" y="485" width="60" height="30" as="geometry" />
        </mxCell>
      </root>
    </mxGraphModel>
  </diagram>
</mxfile>
